<?xml version="1.0" encoding="UTF-8" standalone="no"?>
<svg
   xmlns="http://www.w3.org/2000/svg"
   width="512"
   height="512"
   viewBox="0 0 135.46666 135.46667"
   version="1.1">
  <defs>
    <linearGradient
       id="linearGradient1068">
      <stop
         id="stop1064"
         offset="0"
         style="stop-color:#0078d4;stop-opacity:1" />
      <stop
         id="stop1066"
         offset="1"
         style="stop-color:#005a9e;stop-opacity:1" />
    </linearGradient>
    <linearGradient
       gradientUnits="userSpaceOnUse"
       y2="135.46666"
       x2="135.46666"
       y1="0"
       x1="0"
       id="linearGradient1070"
       xlink:href="#linearGradient1068" />
  </defs>
  <g id="layer1">
    <!-- Background -->
    <rect
       style="fill:url(#linearGradient1070);fill-opacity:1;stroke:none;stroke-width:0.264583"
       width="135.46666"
       height="135.46666"
       x="0"
       y="0"
       rx="16"
       ry="16" />
    <!-- USB Symbol -->
    <path
       style="fill:#ffffff;fill-opacity:1;stroke:none;stroke-width:0.264583"
       d="m 67.733333,27.516666 c -2.116667,0 -3.175,1.058333 -3.175,3.175 v 10.583333 c 0,2.116667 1.058333,3.175 3.175,3.175 2.116667,0 3.175,-1.058333 3.175,-3.175 V 30.691666 c 0,-2.116667 -1.058333,-3.175 -3.175,-3.175 z" />
    <path
       style="fill:#ffffff;fill-opacity:1;stroke:none;stroke-width:0.264583"
       d="m 67.733333,50.8 c -8.466667,0 -15.345833,6.879167 -15.345833,15.345833 v 21.166667 c 0,8.466667 6.879166,15.345833 15.345833,15.345833 8.466667,0 15.345834,-6.879166 15.345834,-15.345833 V 66.145833 C 83.079167,57.679167 76.2,50.8 67.733333,50.8 Z m 0,10.583333 c 2.645834,0 4.7625,2.116667 4.7625,4.7625 v 21.166667 c 0,2.645833 -2.116666,4.7625 -4.7625,4.7625 -2.645833,0 -4.7625,-2.116667 -4.7625,-4.7625 V 66.145833 c 0,-2.645833 2.116667,-4.7625 4.7625,-4.7625 z" />
    <!-- Windows Logo -->
    <path
       style="fill:#ffffff;fill-opacity:0.8;stroke:none;stroke-width:0.264583"
       d="m 40.216667,50.8 h 15.345833 v 15.345833 H 40.216667 Z" />
    <path
       style="fill:#ffffff;fill-opacity:0.8;stroke:none;stroke-width:0.264583"
       d="m 40.216667,71.966667 h 15.345833 v 15.345833 H 40.216667 Z" />
    <path
       style="fill:#ffffff;fill-opacity:0.8;stroke:none;stroke-width:0.264583"
       d="m 61.383333,50.8 h 15.345834 v 15.345833 H 61.383333 Z" />
    <path
       style="fill:#ffffff;fill-opacity:0.8;stroke:none;stroke-width:0.264583"
       d="m 61.383333,71.966667 h 15.345834 v 15.345833 H 61.383333 Z" />
    <!-- DS9 Text as Path -->
    <path
      style="fill:#ffffff;stroke:none;"
      d="M 50.8,105.83334
         l 0.00,-10.00
         h 2.00
         c 1.50,0 2.50,0.80 2.50,2.00
         0,1.20 -1.00,2.00 -2.50,2.00
         h -0.50
         v 6.00
         z
         m 3.00,-8.00
         c 0.70,0 1.00,0.30 1.00,1.00
         0,0.70 -0.30,1.00 -1.00,1.00
         h -1.00
         v -2.00
         z
         m 4.00,8.00
         v -10.00
         h 2.00
         v 10.00
         z
         m 3.00,0
         v -10.00
         h 2.00
         c 1.50,0 2.50,0.80 2.50,2.00
         0,0.80 -0.40,1.40 -1.10,1.70
         0.90,0.20 1.60,0.90 1.60,1.80
         0,1.20 -1.00,2.00 -2.50,2.00
         h -2.00
         v 2.50
         z
         m 2.00,-8.00
         c 0.70,0 1.00,0.30 1.00,1.00
         0,0.70 -0.30,1.00 -1.00,1.00
         h -1.00
         v -2.00
         z
         m 5.00,8.00
         v -10.00
         h 2.00
         c 1.50,0 2.50,0.80 2.50,2.00
         0,1.20 -1.00,2.00 -2.50,2.00
         h -0.50
         v 6.00
         z
         m 3.00,-8.00
         c 0.70,0 1.00,0.30 1.00,1.00
         0,0.70 -0.30,1.00 -1.00,1.00
         h -1.00
         v -2.00
         z" />
    <!-- WowUSB Text as Path -->
    <path
      style="fill:#ffffff;stroke:none;"
      d="M 27.52,27.52
         l 0.00,-7.00
         h 1.50
         l 1.00,4.00
         l 1.00,-4.00
         h 1.50
         l 0.00,7.00
         h -1.00
         v -4.50
         l -1.00,4.00
         h -0.50
         l -1.00,-4.00
         v 4.50
         z
         m 6.00,0
         v -7.00
         h 1.00
         v 7.00
         z
         m 2.00,0
         l 1.00,-7.00
         h 1.00
         l 1.00,7.00
         h -1.00
         l -0.20,-1.50
         h -1.60
         l -0.20,1.50
         z
         m 1.20,-2.50
         h 1.20
         l -0.60,-4.00
         z
         m 3.80,2.50
         v -7.00
         h 1.00
         v 3.00
         l 1.00,-3.00
         h 1.00
         l 1.00,3.00
         v -3.00
         h 1.00
         v 7.00
         h -1.00
         l -1.00,-3.00
         l -1.00,3.00
         z" />
  </g>
</svg>
